<?xml version="1.0" encoding="iso-8859-1"?>
<!-- Generator: Adobe Illustrator 19.0.0, SVG Export Plug-In . SVG Version: 6.00 Build 0)  -->
<svg version="1.1" id="Layer_1" xmlns="http://www.w3.org/2000/svg" xmlns:xlink="http://www.w3.org/1999/xlink" x="0px" y="0px"
	 viewBox="0 0 504.876 504.876" style="enable-background:new 0 0 504.876 504.876;" xml:space="preserve">
<g>
	<path style="fill:#50A5DC;" d="M471.438,34.146h-438C20.493,34.146,10,45.748,10,60.06v32.133v216.953h484.875V92.193V60.06
		C494.875,45.748,484.382,34.146,471.438,34.146z"/>
	<g>
		<path style="fill:#C7EBFF;" d="M10,309.146v75.669c0,14.312,10.493,25.914,23.438,25.914h438
			c12.944,0,23.438-11.602,23.438-25.914v-75.669H10z M252.438,377.559c-10.018,0-18.14-8.122-18.14-18.14s8.121-18.14,18.14-18.14
			s18.14,8.121,18.14,18.14S262.456,377.559,252.438,377.559z"/>
		<circle style="fill:#50A5DC;" cx="252.438" cy="359.419" r="18.14"/>
	</g>
	<polygon style="fill:#C7EBFF;" points="294.938,470.729 209.938,470.729 229.938,410.729 274.938,410.729 	"/>
	<g>
		<path d="M504.875,60.061c0-19.803-15-35.914-33.438-35.914h-438C15,24.146,0,40.258,0,60.061v324.755
			c0,19.803,15,35.913,33.438,35.913h182.625l-13.333,40h-25.792c-5.522,0-10,4.478-10,10s4.478,10,10,10h33h85h33
			c5.522,0,10-4.478,10-10s-4.478-10-10-10h-25.792l-13.333-40h182.625c18.438,0,33.438-16.11,33.438-35.913V60.061H504.875z
			 M20,60.061c0-8.775,6.028-15.914,13.438-15.914h438c7.409,0,13.438,7.139,13.438,15.914v239.086H20V60.061z M281.063,460.729
			h-57.252l13.334-40h30.584L281.063,460.729z M484.875,384.815c0,8.774-6.028,15.913-13.438,15.913h-196.5h-45h-196.5
			c-7.409,0-13.438-7.139-13.438-15.913v-65.669h464.875L484.875,384.815L484.875,384.815z"/>
		<path d="M252.438,387.559c15.517,0,28.14-12.623,28.14-28.14s-12.623-28.14-28.14-28.14s-28.14,12.623-28.14,28.14
			S236.921,387.559,252.438,387.559z M252.438,351.279c4.488,0,8.14,3.651,8.14,8.14s-3.651,8.14-8.14,8.14s-8.14-3.651-8.14-8.14
			S247.949,351.279,252.438,351.279z"/>
		<path d="M48.871,138.438c-5.522,0-10,4.478-10,10v122.356c0,5.522,4.478,10,10,10s10-4.478,10-10V148.438
			C58.871,142.915,54.394,138.438,48.871,138.438z"/>
		<path d="M48.871,62.438c-5.522,0-10,4.478-10,10v39.469c0,5.522,4.478,10,10,10s10-4.478,10-10V72.438
			C58.871,66.915,54.394,62.438,48.871,62.438z"/>
	</g>
</g>
<g>
</g>
<g>
</g>
<g>
</g>
<g>
</g>
<g>
</g>
<g>
</g>
<g>
</g>
<g>
</g>
<g>
</g>
<g>
</g>
<g>
</g>
<g>
</g>
<g>
</g>
<g>
</g>
<g>
</g>
</svg>
